<svg width="116" height="28" viewBox="0 0 116 28" fill="none" xmlns="http://www.w3.org/2000/svg">
<path fill-rule="evenodd" clip-rule="evenodd" d="M4.17426 2.6103L0 4.90252L0.0723861 14.5057L8.03485 19.3315C10.4719 18.0285 11.1716 17.5701 11.1716 17.4736C11.1716 17.3529 9.41019 16.1947 7.26273 14.8677L3.32976 12.4548C3.18499 7.8221 3.25737 7.07411 3.49866 6.88108C3.66756 6.71218 4.82574 6.03657 6.0563 5.36097L8.27614 4.13041C14.3566 7.87035 16.2627 8.95614 16.4316 8.95614C16.6488 8.95614 16.6971 8.44944 16.6729 7.09824L16.6005 5.2162C11.5576 2.15185 9.69973 1.04193 9.21716 0.776519L8.34853 0.293945L4.17426 2.6103ZM30.3539 5.19207C29.8231 5.3851 28.9303 5.74703 28.3753 6.03657C27.8204 6.32612 26.9035 7.00172 26.3727 7.53255C25.8418 8.06338 25.1421 9.02853 24.8043 9.70413C24.4906 10.3556 24.0804 11.7068 23.9357 12.6478C23.7185 14.0232 23.7185 14.7712 23.9598 15.9776C24.1287 16.8462 24.5147 18.0285 24.8043 18.6317C25.118 19.235 25.8418 20.176 26.4209 20.7309C27 21.2859 28.0617 22.0339 28.7855 22.3958C29.5335 22.7578 30.7641 23.1679 31.5603 23.2886C32.6461 23.4816 33.4665 23.4575 34.6971 23.2403C35.6381 23.0714 37.0375 22.7095 37.8338 22.42L39.2815 21.8891L39.4021 19.1143C38.0027 19.8141 36.941 20.2242 36.1448 20.4414C35.3485 20.6827 33.9491 20.8516 33.008 20.8516C31.7292 20.8275 31.0295 20.6827 30.1126 20.2484C29.4611 19.9106 28.496 19.1626 28.0134 18.5835C27.5067 18.0285 26.9276 17.0634 26.7346 16.4602C26.5416 15.8569 26.3727 14.7712 26.3727 14.0473C26.3968 13.1787 26.5898 12.31 26.9517 11.5138C27.2654 10.8382 27.941 9.87303 28.4719 9.3422C29.0027 8.81137 29.8713 8.1599 30.378 7.89448C31.1019 7.53255 31.7775 7.41191 33.2493 7.43604C34.6971 7.46017 35.5898 7.60494 36.748 8.06338C37.6166 8.40118 38.5335 8.76311 38.7748 8.88376C39.185 9.07679 39.2091 8.98027 39.1367 7.65319L39.0402 6.20547C36.3619 5.24033 35.252 5.0473 33.6113 4.97491C32.1153 4.90252 31.0054 4.99904 30.3539 5.19207ZM52.8177 7.46017C52.9142 7.17062 53.1555 6.78456 53.3727 6.61566C53.5898 6.47089 53.9517 6.32612 54.193 6.32612C54.4102 6.32612 54.8204 6.54327 55.0858 6.80869C55.3512 7.07411 55.5684 7.50842 55.5684 7.77384C55.5684 8.03925 55.3512 8.47357 55.0858 8.73899C54.8204 9.0044 54.4584 9.22156 54.2413 9.22156C54.0483 9.22156 53.6139 8.95614 53.2761 8.61834C52.866 8.18403 52.7212 7.84622 52.8177 7.46017ZM6.99732 9.29395C6.2252 9.70413 5.59786 10.1626 5.62198 10.3074C5.64611 10.428 7.35925 11.5862 9.43432 12.865L13.2225 15.2055L13.3673 20.924C9.79625 22.8784 8.63807 23.4575 8.46917 23.4575C8.30027 23.4575 6.49062 22.42 4.41555 21.1653C2.36461 19.9106 0.55496 18.873 0.386059 18.873C0.168901 18.873 0.0965148 19.3797 0.144772 20.7309L0.19303 22.5889C6.17694 26.2323 8.08311 27.2939 8.27614 27.2939C8.4933 27.2939 10.4477 26.3047 12.6193 25.0741L16.6005 22.8543V13.2269C10.6166 9.58349 8.78284 8.52183 8.63807 8.52183C8.51743 8.52183 7.76944 8.85963 6.99732 9.29395ZM75.7158 13.3234L77.8874 11.1519C79.0938 9.96955 80.1314 8.98027 80.252 8.98027C80.3485 8.98027 80.4209 9.46285 80.4209 11.1519H84.0402V13.3234H80.4209V16.6291C80.4209 19.5728 80.4692 20.0312 80.8794 20.562C81.2654 21.0446 81.5308 21.1653 82.2788 21.117C82.7855 21.0929 83.4611 20.8998 83.7507 20.6827C84.0402 20.4897 84.3539 20.3208 84.4021 20.3208C84.4745 20.3208 84.5228 20.7551 84.5228 21.2859C84.5228 22.1545 84.4504 22.2752 83.6783 22.613C83.2198 22.806 82.3271 22.9749 81.6997 22.9749C80.9759 22.9749 80.252 22.7819 79.7694 22.4923C79.3351 22.2269 78.8043 21.7202 78.563 21.3583C78.2252 20.8275 78.1287 20.0553 78.008 13.3234H75.7158ZM61.9625 11.2001C61.5764 11.3449 60.9491 11.6586 60.5871 11.8998C60.2252 12.1653 59.8874 12.3583 59.8633 12.3583C59.8391 12.3583 59.7909 12.117 59.7909 11.8033C59.7909 11.3449 59.6702 11.2725 58.6568 11.2001L57.4987 11.1519V22.9749L59.7909 22.8543C59.7909 16.243 59.8633 14.2886 59.9115 14.2162C59.9839 14.1438 60.4665 13.806 60.9973 13.4682C61.5282 13.1063 62.3003 12.8167 62.6863 12.8167C63.0965 12.8167 63.6997 13.0339 64.0134 13.2993C64.6162 13.7575 64.6166 13.7819 64.6889 18.3576L64.689 18.3663L64.7373 22.9749L67.0295 22.8543C67.1501 16.2913 67.0778 14.554 66.9088 13.9267C66.7399 13.3958 66.378 12.672 66.1126 12.2859C65.8231 11.924 65.1957 11.4655 64.689 11.2725C64.1823 11.0795 63.5308 10.9106 63.2413 10.9347C62.9517 10.9347 62.3727 11.0553 61.9625 11.2001ZM69.1769 12.3342C69.4906 11.8998 70.118 11.4173 70.5523 11.2242C71.0349 11.0312 71.807 10.9588 72.4102 11.0312C72.9651 11.1036 73.8579 11.3208 74.3887 11.5138C75.3298 11.8757 75.3539 11.8998 75.3539 14.1679L74.2198 13.6371C73.5925 13.3476 72.7721 13.0821 72.4102 13.0821C72.0483 13.0821 71.5174 13.2993 71.252 13.5647C70.9866 13.8301 70.7694 14.1197 70.7694 14.2162C70.7694 14.3368 70.9142 14.5781 71.0831 14.8194C71.252 15.0366 72.1448 15.688 73.0617 16.2671C74.0027 16.8462 75.0161 17.6425 75.3298 18.0527C75.6193 18.4387 75.933 19.0178 76.0054 19.3556C76.0778 19.6934 75.9571 20.4173 75.7641 20.9722C75.4504 21.7926 75.1609 22.1063 74.3405 22.4923C73.7614 22.7578 72.8204 22.9508 72.2172 22.9508C71.6381 22.9508 70.5523 22.7578 68.4772 22.1063L68.3566 19.8382L69.6354 20.4414C70.3351 20.7792 71.2761 21.0446 71.7346 21.0446C72.2172 21.0446 72.8445 20.8757 73.1341 20.6827C73.4236 20.4897 73.6649 20.1036 73.6649 19.8382C73.6649 19.5728 73.4236 19.1384 73.1341 18.8489C72.8445 18.5835 71.9517 18.0044 71.1555 17.5942C70.3351 17.1358 69.4906 16.4602 69.1769 15.9776C68.7909 15.4226 68.5979 14.7953 68.5979 14.0956C68.5979 13.42 68.7909 12.8409 69.1769 12.3342ZM109.327 11.2966C108.603 11.5138 107.855 11.9722 107.324 12.5272C106.866 13.0339 106.311 13.9267 106.118 14.5299C105.925 15.1331 105.756 16.2671 105.756 17.0634C105.756 17.8596 105.877 18.8972 106.046 19.3556C106.19 19.8141 106.576 20.5862 106.89 21.0446C107.18 21.5031 107.903 22.1545 108.458 22.4923C109.351 22.999 109.81 23.0956 111.426 23.0956C113.019 23.0956 113.598 22.9749 114.563 22.4923C115.721 21.9132 115.794 21.8409 115.842 20.8516C115.866 20.2966 115.842 19.8382 115.769 19.8382C115.721 19.8382 115.094 20.1036 114.394 20.4414C113.542 20.8435 112.697 21.0446 111.861 21.0446C111.161 21.0446 110.268 20.8757 109.858 20.6827C109.472 20.4897 108.917 19.9588 108.627 19.5245C108.338 19.1143 108.097 18.4146 108.072 18.0285L108.048 17.3047L109.297 17.288C113.757 17.2285 115.284 17.2082 115.528 17.2082C115.987 17.184 116.011 17.0634 115.842 15.7846C115.745 15.0366 115.456 13.9749 115.19 13.4441C114.925 12.9132 114.515 12.2859 114.273 12.0687C114.056 11.8275 113.405 11.4897 112.874 11.2725C112.343 11.0795 111.595 10.9347 111.185 10.9347C110.799 10.9347 109.954 11.1036 109.327 11.2966ZM42.7802 12.1653C43.3834 11.8033 44.2038 11.4414 44.5898 11.3449C45 11.2484 45.8686 11.2001 46.5201 11.2484C47.2922 11.2966 48.2332 11.5862 49.0295 12.0205C49.7534 12.4065 50.622 13.1063 50.9598 13.5647C51.3217 14.0232 51.7319 14.7712 51.8767 15.2537C52.0456 15.7122 52.1904 16.5808 52.1904 17.184C52.1904 17.7872 51.9732 18.7524 51.7078 19.3556C51.4182 19.9588 50.9115 20.7551 50.5496 21.117C50.2118 21.5031 49.4638 22.0339 48.933 22.2993C48.4021 22.5889 47.3164 22.8543 46.5201 22.9267C45.4584 23.0232 44.7587 22.9508 43.866 22.613C43.2145 22.3476 42.2976 21.8167 41.8633 21.4065C41.4048 21.0205 40.8257 20.2484 40.5603 19.7175C40.2949 19.1867 40.0295 18.2698 39.9571 17.6666C39.8847 17.0634 39.9571 16.1465 40.126 15.6157C40.2949 15.0848 40.7051 14.2403 41.067 13.7095C41.429 13.2028 42.2011 12.5031 42.7802 12.1653ZM52.9142 17.0634V22.9749H55.3271V11.1519H52.9142V17.0634ZM86.0188 12.8891C86.4531 12.4548 87.4182 11.8998 88.1421 11.6344C88.8901 11.369 89.807 11.1519 90.193 11.1519C90.6032 11.1519 91.4718 11.2966 92.1233 11.4897C92.7989 11.6827 93.7641 12.2135 94.2949 12.672C94.8257 13.1063 95.5013 13.9508 95.815 14.554C96.2011 15.302 96.3458 16.05 96.3458 17.0634C96.3458 17.932 96.1769 18.8972 95.9115 19.4762C95.6702 20.0071 94.9946 20.8757 94.3914 21.4065C93.7882 21.9374 92.8713 22.5165 92.3646 22.6612C91.8338 22.8301 90.9169 22.9749 90.3137 22.9749C89.7346 22.9749 88.7694 22.8301 88.2145 22.613C87.6595 22.42 86.8391 21.9856 86.4048 21.672C85.9705 21.3583 85.2949 20.5138 84.9089 19.7899C84.378 18.8248 84.2332 18.1974 84.2332 17.184C84.2332 16.3878 84.4263 15.4226 84.7158 14.7712C84.9812 14.1679 85.5603 13.3234 86.0188 12.8891ZM97.7936 17.0634V22.9749H99.9651C99.9651 16.1947 99.9893 16.0741 100.641 15.0124C101.027 14.4092 101.582 13.7336 101.92 13.4923C102.233 13.2752 102.668 13.0821 102.861 13.0821C103.078 13.058 103.633 13.3476 104.139 13.6854L105.032 14.2886C106.094 12.6237 106.142 12.4065 105.877 12.117C105.708 11.924 105.105 11.6103 104.525 11.4173C103.705 11.1519 103.319 11.1519 102.74 11.369C102.354 11.5138 101.678 11.9481 101.244 12.3583C100.81 12.7443 100.351 13.0821 100.206 13.0821C100.086 13.0821 99.9651 12.6478 99.9651 12.117V11.1519H97.7936V17.0634ZM108.483 14.6264C108.773 14.0956 109.4 13.4682 109.858 13.2269C110.389 12.9615 110.968 12.8409 111.427 12.9374C111.813 13.0098 112.344 13.2752 112.609 13.4923C112.85 13.7095 113.188 14.1921 113.381 14.5781C113.574 14.9401 113.719 15.3985 113.719 15.5915C113.719 15.9052 113.236 15.9535 110.824 15.9535C109.231 15.9535 107.928 15.8811 107.928 15.7846C107.928 15.6639 108.169 15.1572 108.483 14.6264ZM42.8289 14.8918C43.1908 14.3851 43.8423 13.8301 44.2766 13.6371C44.7109 13.4682 45.483 13.3234 45.9897 13.2993C46.4723 13.2993 47.2444 13.4441 47.6787 13.613C48.0889 13.7819 48.7886 14.361 49.1747 14.8677C49.7779 15.6398 49.8986 16.0258 49.8986 17.0634C49.8986 17.9561 49.7538 18.5352 49.416 18.9937C49.1506 19.3315 48.668 19.8382 48.3302 20.1036C47.9924 20.3449 47.3409 20.6344 46.8825 20.7551C46.424 20.8516 45.6519 20.8516 45.1935 20.7309C44.735 20.6344 44.0835 20.369 43.7699 20.1277C43.4562 19.8864 42.9736 19.3797 42.6841 19.0178C42.3222 18.5111 42.1774 17.9803 42.1774 17.0634C42.1774 16.0741 42.3222 15.5915 42.8289 14.8918ZM88.408 13.8543C87.8289 14.1438 87.1533 14.7229 86.912 15.109C86.6466 15.5433 86.4535 16.3154 86.4535 17.0393C86.4535 17.9079 86.5983 18.487 86.9844 19.0661C87.298 19.5245 87.9254 20.1277 88.3838 20.369C88.9468 20.6907 89.6305 20.8435 90.4348 20.8275C91.1104 20.8033 91.9549 20.5862 92.3651 20.3449C92.7511 20.1036 93.3543 19.5245 93.6439 19.0661C94.1264 18.3905 94.1988 18.0044 94.1264 16.9186C94.0782 16.0982 93.861 15.3261 93.5715 14.9401C93.3061 14.5781 92.6546 14.0473 92.1238 13.7819C91.5929 13.5165 90.7726 13.2993 90.3141 13.2993C89.8557 13.2993 88.987 13.5406 88.408 13.8543Z" fill="#FCFCFB"/>
</svg>
