<svg width="101" height="39" viewBox="0 0 101 39" fill="none" xmlns="http://www.w3.org/2000/svg">
<g clip-path="url(#clip0_1451_3356)">
<path d="M12.3726 37.9427C5.55019 37.9427 0.0195312 32.4121 0.0195312 25.5897V5.13674L12.3726 0.644531V37.9427Z" fill="#F6F6F6"/>
<path d="M14.6289 22.5986C21.4513 22.5986 26.9819 17.068 26.9819 10.2456V5.13674L14.6289 0.644531V22.5986Z" fill="#F6F6F6"/>
<path d="M44.8568 12.0098C46.0477 12.0098 47.071 12.2194 47.9265 12.6388C48.7987 13.0581 49.4781 13.6536 49.9645 14.4252C50.451 15.1969 50.6942 16.1278 50.6942 17.2181C50.6942 18.2917 50.451 19.2227 49.9645 20.011C49.4781 20.7827 48.7987 21.3781 47.9265 21.7975C47.071 22.2169 46.0477 22.4265 44.8568 22.4265H41.1581V28.6162H38.4658V12.0098H44.8568ZM44.429 20.1117C45.62 20.1117 46.4923 19.8685 47.0458 19.382C47.6161 18.8788 47.9013 18.1575 47.9013 17.2181C47.9013 16.262 47.6161 15.5407 47.0458 15.0543C46.4923 14.551 45.62 14.2994 44.429 14.2994H41.1581V20.1117H44.429ZM59.1285 28.8678C57.8705 28.8678 56.7634 28.6078 55.8072 28.0878C54.8511 27.5678 54.1047 26.8214 53.5679 25.8485C53.0479 24.8588 52.7879 23.6846 52.7879 22.3259C52.7879 20.9672 53.0479 19.8014 53.5679 18.8285C54.1047 17.8388 54.8427 17.084 55.7821 16.564C56.7214 16.044 57.7866 15.784 58.9776 15.784C60.2021 15.784 61.2421 16.0356 62.0976 16.5388C62.9531 17.042 63.6072 17.7298 64.0601 18.602C64.5131 19.4743 64.7395 20.464 64.7395 21.571C64.7395 21.873 64.7311 22.1581 64.7143 22.4265C64.6976 22.6949 64.6724 22.9298 64.6389 23.131H54.524V21.0678H63.4563L62.1227 21.4704C62.1227 20.3298 61.8376 19.4575 61.2672 18.8536C60.6969 18.233 59.9169 17.9227 58.9272 17.9227C58.206 17.9227 57.5769 18.0904 57.0401 18.4259C56.5034 18.7614 56.0924 19.2646 55.8072 19.9356C55.5221 20.5898 55.3795 21.3949 55.3795 22.351C55.3795 23.2904 55.5305 24.0872 55.8324 24.7414C56.1343 25.3956 56.5621 25.8904 57.1156 26.2259C57.6692 26.5614 58.3234 26.7291 59.0782 26.7291C59.9169 26.7291 60.5963 26.5698 61.1163 26.251C61.6363 25.9323 62.0472 25.4878 62.3492 24.9175L64.4879 25.924C64.186 26.5278 63.775 27.0562 63.255 27.5091C62.7518 27.9452 62.1479 28.2807 61.4434 28.5156C60.7389 28.7504 59.9672 28.8678 59.1285 28.8678ZM71.5181 12.3369V24.842C71.5181 25.4627 71.6775 25.9156 71.9962 26.2007C72.3317 26.4859 72.7762 26.6285 73.3297 26.6285C73.7826 26.6285 74.1768 26.5614 74.5123 26.4272C74.8478 26.2762 75.1581 26.0749 75.4433 25.8233L76.0471 27.7859C75.6613 28.1214 75.1833 28.3898 74.613 28.591C74.0594 28.7756 73.4388 28.8678 72.751 28.8678C72.0297 28.8678 71.3671 28.7504 70.7633 28.5156C70.1594 28.2807 69.6897 27.9033 69.3542 27.3833C69.0188 26.8465 68.8426 26.1504 68.8259 25.2949V13.0917L71.5181 12.3369ZM75.8459 16.0356V18.1491H66.4104V16.0356H75.8459ZM78.5086 28.6162V16.0356H80.7983L81.0499 18.3001C81.3854 17.4781 81.8802 16.8575 82.5344 16.4381C83.2054 16.002 84.0273 15.784 85.0002 15.784C85.2519 15.784 85.5035 15.8091 85.7551 15.8594C86.0067 15.893 86.2164 15.9517 86.3841 16.0356L86.0067 18.4007C85.8222 18.3336 85.6125 18.2833 85.3777 18.2498C85.1596 18.1994 84.8577 18.1743 84.4719 18.1743C83.9519 18.1743 83.4402 18.3169 82.937 18.602C82.4338 18.8704 82.0144 19.2814 81.679 19.8349C81.3602 20.3885 81.2009 21.093 81.2009 21.9485V28.6162H78.5086ZM95.9283 20.5394C95.9283 19.7007 95.6935 19.0549 95.2238 18.602C94.7709 18.1323 94.1419 17.8975 93.3367 17.8975C92.5819 17.8975 91.936 18.0736 91.3993 18.4259C90.8625 18.7781 90.4683 19.3485 90.2167 20.1369L87.9522 19.1807C88.2709 18.1575 88.8915 17.3356 89.8141 16.7149C90.7535 16.0943 91.9612 15.784 93.4373 15.784C94.4438 15.784 95.3328 15.9517 96.1044 16.2872C96.876 16.6059 97.4799 17.0923 97.916 17.7465C98.3689 18.4007 98.5954 19.2394 98.5954 20.2627V25.8736C98.5954 26.4943 98.9057 26.8046 99.5264 26.8046C99.8283 26.8046 100.122 26.7627 100.407 26.6788L100.256 28.5407C99.8702 28.7252 99.3838 28.8175 98.7967 28.8175C98.2599 28.8175 97.7735 28.7252 97.3373 28.5407C96.918 28.3394 96.5825 28.0459 96.3309 27.6601C96.096 27.2575 95.9786 26.7627 95.9786 26.1756V25.9994L96.5322 25.9743C96.3812 26.6285 96.0709 27.1736 95.6012 27.6098C95.1315 28.0291 94.5864 28.3478 93.9657 28.5659C93.3451 28.7672 92.716 28.8678 92.0786 28.8678C91.2902 28.8678 90.5773 28.742 89.9399 28.4904C89.3193 28.2388 88.8244 27.8614 88.4554 27.3581C88.1031 26.8381 87.927 26.2007 87.927 25.4459C87.927 24.5065 88.2289 23.7349 88.8328 23.131C89.4535 22.5272 90.3257 22.1162 91.4496 21.8981L96.3309 20.942L96.3057 22.8291L92.758 23.5588C92.0535 23.693 91.5251 23.8859 91.1728 24.1375C90.8206 24.3891 90.6444 24.7581 90.6444 25.2446C90.6444 25.7143 90.8206 26.0917 91.1728 26.3769C91.5419 26.6452 92.0283 26.7794 92.6322 26.7794C93.0515 26.7794 93.4541 26.7291 93.8399 26.6285C94.2425 26.5278 94.6031 26.3685 94.9219 26.1504C95.2406 25.9156 95.4838 25.622 95.6515 25.2698C95.836 24.9007 95.9283 24.4646 95.9283 23.9614V20.5394Z" fill="white"/>
</g>
<defs>
<clipPath id="clip0_1451_3356">
<rect width="101" height="38" fill="white" transform="translate(0 0.293945)"/>
</clipPath>
</defs>
</svg>
