<svg width="156" height="23" viewBox="0 0 156 23" fill="none" xmlns="http://www.w3.org/2000/svg">
<path d="M11.2778 17.9319H5.63889V9.28906H0V3.78906H11.2778V17.9319ZM22.5556 17.9319H16.1111L22.1528 3.78906H28.5972L22.5556 17.9319Z" fill="white"/>
<path d="M16.1109 10.0748C17.8905 10.0748 19.3331 8.66767 19.3331 6.93192C19.3331 5.19617 17.8905 3.78906 16.1109 3.78906C14.3313 3.78906 12.8887 5.19617 12.8887 6.93192C12.8887 8.66767 14.3313 10.0748 16.1109 10.0748Z" fill="white"/>
<g clip-path="url(#clip0_1451_3379)">
<path d="M40.88 17.9509H43.8769V6.55409H47.7974V3.80487H37V6.55487H40.88V17.9509ZM47.8015 17.9509H50.6138V13.1894C50.6138 11.5355 51.4961 10.5392 52.8319 10.5392C53.303 10.5392 53.673 10.6186 54.1036 10.7584V7.9888C53.797 7.90275 53.4788 7.86248 53.1597 7.86937C52.0102 7.86937 50.9635 8.60637 50.6138 9.58223V7.98959H47.8015V17.9509ZM59.5015 18.1701C60.9182 18.1701 61.9851 17.4724 62.4579 16.8344V17.9501H65.2702V7.98959H62.4579V9.1053C61.9851 8.46809 60.9182 7.77037 59.5015 7.77037C56.7718 7.77037 54.6776 10.1613 54.6776 12.9702C54.6776 15.7799 56.7718 18.1709 59.5023 18.1709L59.5015 18.1701ZM60.0973 15.6794C58.5366 15.6794 57.5101 14.544 57.5101 12.9702C57.5101 11.3957 58.5366 10.2595 60.0973 10.2595C61.6573 10.2595 62.6838 11.3957 62.6838 12.9702C62.6838 14.544 61.6573 15.6794 60.0973 15.6794ZM71.9658 18.1701C73.3824 18.1701 74.4494 17.4724 74.9213 16.8344V17.9501H77.7336V3.00894H74.9213V9.10609C74.4494 8.46809 73.3824 7.77037 71.9658 7.77037C69.2352 7.77037 67.141 10.1613 67.141 12.9702C67.141 15.7799 69.2352 18.1709 71.9658 18.1709V18.1701ZM72.5608 15.6794C71.0008 15.6794 69.9743 14.544 69.9743 12.9702C69.9743 11.3957 71.0008 10.2595 72.5608 10.2595C74.1207 10.2595 75.1472 11.3957 75.1472 12.9702C75.1472 14.544 74.1207 15.6794 72.5608 15.6794ZM81.6582 6.47002C81.8943 6.47198 82.1284 6.42864 82.3472 6.34249C82.5659 6.25633 82.765 6.12906 82.9329 5.96798C83.1008 5.80691 83.2343 5.61521 83.3256 5.40391C83.4169 5.19261 83.4643 4.96587 83.465 4.73673C83.4643 4.50759 83.4169 4.28085 83.3256 4.06955C83.2343 3.85825 83.1008 3.66655 82.9329 3.50548C82.765 3.3444 82.5659 3.21713 82.3472 3.13097C82.1284 3.04481 81.8943 3.00148 81.6582 3.00344C81.1857 3.00714 80.7337 3.19094 80.3996 3.5152C80.0656 3.83945 79.8762 4.27818 79.8724 4.73673C79.8762 5.19528 80.0656 5.63401 80.3996 5.95826C80.7337 6.28252 81.1857 6.46632 81.6582 6.47002ZM80.2626 17.9509H83.0749V8.10273H80.2626V17.9509ZM85.5698 17.9509H88.3821V13.0897C88.3821 11.1764 89.347 10.2603 90.6609 10.2603C91.8307 10.2603 92.4678 11.1372 92.4678 12.5711V17.9509H95.28V12.113C95.28 9.5233 93.8019 7.76959 91.3182 7.76959C89.9833 7.76959 88.9366 8.32744 88.3821 9.12416V7.9888H85.5698V17.9509ZM102.436 15.2999C101.02 15.2999 99.8296 14.2635 99.8296 12.7494C99.8296 11.2157 101.02 10.199 102.436 10.199C103.853 10.199 105.043 11.2157 105.043 12.7494C105.043 14.2635 103.853 15.2999 102.436 15.2999ZM102.108 22.2534C105.249 22.2534 107.63 20.6993 107.63 17.1125V7.9283H104.818V9.04401C104.263 8.26773 103.154 7.70987 101.841 7.70987C99.152 7.70987 96.9962 9.9413 96.9962 12.7502C96.9962 15.5395 99.152 17.7709 101.841 17.7709C103.155 17.7709 104.263 17.1934 104.818 16.4564V17.1337C104.818 18.7279 103.73 19.8633 102.067 19.8633C100.918 19.8633 99.768 19.4846 98.8646 18.6282L97.3249 20.66C98.4947 21.7561 100.322 22.2534 102.108 22.2534ZM113.576 17.9509H116.223L122.259 3.80487H118.975L114.91 13.6271L110.784 3.80487H107.561L113.576 17.9509ZM124.84 6.3553C125.076 6.35717 125.31 6.31375 125.529 6.22755C125.747 6.14134 125.946 6.01405 126.114 5.85299C126.282 5.69192 126.415 5.50026 126.506 5.28901C126.598 5.07776 126.645 4.85109 126.646 4.62201C126.645 4.39294 126.598 4.16627 126.506 3.95502C126.415 3.74377 126.282 3.55211 126.114 3.39104C125.946 3.22998 125.747 3.10269 125.529 3.01648C125.31 2.93028 125.076 2.88687 124.84 2.88873C123.875 2.88873 123.053 3.66501 123.053 4.62201C123.053 5.57823 123.875 6.3553 124.84 6.3553ZM123.443 17.9509H126.256V7.9888H123.443V17.9509ZM133.534 18.1701C135.689 18.1701 137.332 17.2932 138.297 15.9387L136.202 14.4246C135.73 15.1215 134.848 15.6794 133.554 15.6794C132.2 15.6794 130.989 14.9424 130.825 13.6074H138.501C138.563 13.1887 138.543 12.9097 138.543 12.6709C138.543 9.42351 136.182 7.76959 133.493 7.76959C130.373 7.76959 128.094 10.0207 128.094 12.9694C128.094 16.1178 130.476 18.1701 133.534 18.1701ZM130.927 11.7547C131.194 10.5392 132.364 10.0207 133.411 10.0207C134.458 10.0207 135.484 10.5589 135.73 11.7547H130.927ZM149.079 17.9509H151.871L155.258 7.9888H152.24L150.311 14.3641L148.216 7.9888H146.061L143.988 14.3641L142.038 7.9888H139.04L142.449 17.9509H145.24L147.149 12.2922L149.079 17.9509Z" fill="white"/>
</g>
<defs>
<clipPath id="clip0_1451_3379">
<rect width="119" height="22" fill="white" transform="translate(37 0.646484)"/>
</clipPath>
</defs>
</svg>
